<svg class="svg-icon" style="width: 1em; height: 1em;vertical-align: middle;fill: currentColor;overflow: hidden;" viewBox="0 0 1024 1024" version="1.1" xmlns="http://www.w3.org/2000/svg"><path d="M438.506 196.534a98.672 98.672 0 0 1 7.902-0.292h153.596V62.486C600.004 28.032 571.972 0 537.518 0H94.662c-34.48 0-62.532 28.032-62.532 62.486v899.03c0 34.454 28.052 62.484 62.532 62.484h442.856c34.454 0 62.486-28.03 62.486-62.484V582.03l-363.664 0.046 91.192-93.582-0.736-3.478a122.072 122.072 0 0 1-2.606-25.204v-141.348c-0.002-64.268 50.168-117.824 114.316-121.93z m-125.43 287.716l-108.29 111.14 381.904-0.046v366.172c0 27.112-22.06 49.17-49.172 49.17H94.662c-27.14 0-49.218-22.058-49.218-49.17V62.486c0-27.114 22.078-49.172 49.218-49.172h442.856c27.112 0 49.172 22.058 49.172 49.172v120.442h-140.282c-3.222 0-6.152 0.11-8.856 0.326-71.034 4.546-126.678 63.936-126.678 135.208v141.348a136.316 136.316 0 0 0 2.202 24.44z" fill="#4B555F" /><path d="M438.506 196.534a98.672 98.672 0 0 1 7.902-0.292h131.406V62.486c0-22.22-18.076-40.296-40.296-40.296H94.662c-22.244 0-40.342 18.076-40.342 40.296v899.03c0 22.218 18.098 40.294 40.342 40.294h442.856c22.22 0 40.296-18.076 40.296-40.294V582.03l-341.474 0.046 91.192-93.582-0.736-3.478a122.072 122.072 0 0 1-2.606-25.204v-141.348c-0.002-64.268 50.168-117.824 114.316-121.93z m-125.43 287.716l-108.29 111.14 359.714-0.046v366.172c0 14.878-12.104 26.98-26.982 26.98H94.662c-14.904 0-27.028-12.104-27.028-26.98V62.486c0-14.878 12.124-26.982 27.028-26.982h442.856c14.878 0 26.982 12.104 26.982 26.982v120.442h-118.092c-3.222 0-6.152 0.11-8.856 0.326-71.034 4.546-126.678 63.936-126.678 135.208v141.348a136.316 136.316 0 0 0 2.202 24.44z" fill="#4B555F" /><path d="M94.66 51.036c-6.346 0-11.494 5.148-11.494 11.45v170.148l86.982-181.598H94.66zM371.054 84.054h-103.758a40.3 40.3 0 0 1-30.798-14.246l-15.932-18.772h-2.708L83.166 332.266V727.24L395.018 76.156a40.204 40.204 0 0 1-23.964 7.898zM317.532 459.81v-18.416l-45.044 94.038 47.796-49.04a128.246 128.246 0 0 1-2.752-26.582zM537.52 51.036h-33.02l-66.524 138.862a105.296 105.296 0 0 1 8.432-0.312h102.56v-127.1c0-6.302-5.148-11.45-11.448-11.45zM471.482 588.688v0.046H246.97L83.166 930.716v30.802c0 6.302 5.148 11.448 11.494 11.448h319.174l135.134-282.16v-102.118h-77.486zM437.666 972.964h99.854c6.302 0 11.45-5.146 11.45-11.448V740.552l-111.304 232.412z" fill="#71CBDF" /><path d="M431.524 24.54l-34.75 40.962a33.656 33.656 0 0 1-25.722 11.894h-103.758a33.65 33.65 0 0 1-25.722-11.896l-34.746-40.96-10.154 8.614 34.75 40.96a46.948 46.948 0 0 0 35.876 16.596h103.758a46.95 46.95 0 0 0 35.876-16.596l34.75-40.962-10.158-8.612zM290.438 894.362v51.278h51.276v-51.278h-51.276z m37.964 37.964h-24.648v-24.65h24.648v24.65zM418.606 894.362h37.962v13.314h-37.962zM418.606 932.326h37.962v13.314h-37.962zM159.708 920l59.504 29.754v-59.506L159.708 920z m46.192 8.212L189.478 920l16.422-8.21v16.422zM856.326 182.94H446.402c-74.738 0-135.542 60.804-135.542 135.542v141.31c0 8.18 0.744 16.386 2.214 24.446L204.786 595.4h266.698l9.21-0.066h375.63c74.74 0 135.544-60.804 135.544-135.542v-141.31c0.002-74.738-60.802-135.542-135.542-135.542z m122.23 276.852c0 67.398-54.832 122.228-122.23 122.228H462.232l0.022 0.066H236.34l91.18-93.598-0.728-3.472a123.06 123.06 0 0 1-2.62-25.224v-141.31c0-67.398 54.832-122.228 122.228-122.228h409.922c67.398 0 122.23 54.832 122.23 122.228v141.31z" fill="#4B555F" /><path d="M856.328 211.786H446.402c-58.832 0-106.696 47.864-106.696 106.696v141.31c0 7.384 0.77 14.798 2.288 22.034l2.426 11.57-71.264 73.156h167.508l-0.022-0.064h415.684c58.832 0 106.696-47.864 106.696-106.696v-141.31c0.002-58.832-47.862-106.696-106.694-106.696z" fill="#FFD351" /><path d="M517.472 314.53h13.314v-13.314h-13.314v13.314z m26.626 0h13.314v-13.314h-13.314v13.314z m26.628 0h13.314v-13.314h-13.314v13.314z m53.256 0h13.314v-13.314h-13.314v13.314z m-186.392 0h13.314v-13.314h-13.314v13.314z m26.626 0h13.314v-13.314h-13.314v13.314z m26.628 0h13.314v-13.314h-13.314v13.314z m106.51 0h13.314v-13.314h-13.314v13.314z m186.392 0h13.314v-13.314h-13.314v13.314z m-133.138 0h13.314v-13.314h-13.314v13.314z m106.51 0h13.314v-13.314h-13.314v13.314z m79.882-13.314v13.314h13.314v-13.314H837z m-26.626 13.314h13.314v-13.314h-13.314v13.314z m-133.138 0h13.314v-13.314h-13.314v13.314z m26.628 0h13.314v-13.314h-13.314v13.314z m26.626 0h13.314v-13.314h-13.314v13.314zM437.59 373.598h418.888v13.314H437.59zM437.59 450.654h418.888v13.314H437.59z" fill="#4B555F" /></svg>