<svg class="svg-icon" style="width: 1em; height: 1em;vertical-align: middle;fill: currentColor;overflow: hidden;" viewBox="0 0 1024 1024" version="1.1" xmlns="http://www.w3.org/2000/svg"><path d="M706.376481 1023.992H280.487809a18.179858 18.179858 0 0 1-1.441989-0.05c-18.211858-0.111999-37.09571-7.971938-50.591605-21.075835-14.417887-13.969891-22.691823-33.527738-22.691823-53.651581V726.548324a7.539941 7.539941 0 0 1 7.537942-7.537941H528.279873c1.889985 0 3.709971 0.709994 5.09796 1.987984l46.207639 42.459668v-231.738189c0-12.359903-10.055921-22.411825-22.411825-22.411825H213.300334a7.539941 7.539941 0 0 1-7.537942-7.537941V74.725416c0-19.619847 7.925938-38.831697 21.745831-52.707588C241.180116 8.233936 260.691963 0 279.683815 0h426.692666c20.047843 0 38.813697 7.787939 52.837588 21.929829 14.13789 14.13789 21.935829 32.897743 21.935828 52.797587v97.941235a7.539941 7.539941 0 0 1-7.537941 7.537941H428.378653c-12.357903 0-22.411825 10.055921-22.411825 22.413825V434.296607l46.15364-42.447668a7.543941 7.543941 0 0 1 5.10396-1.989985h316.389528a7.539941 7.539941 0 0 1 7.537941 7.537941v551.869689c0 41.201678-33.541738 74.725416-74.775416 74.725416zM220.838275 734.086265v215.130319c0 15.829876 6.771947 31.841751 18.113858 42.829666 10.849915 10.533918 25.985797 16.819869 40.481684 16.819868 0.347997 0 0.691995 0.024 1.035992 0.072l425.908672-0.022c32.919743 0 59.699534-26.757791 59.699534-59.649534V404.932836H460.164405l-56.631558 52.083594a7.549941 7.549941 0 0 1-8.131936 1.353989 7.531941 7.531941 0 0 1-4.509965-6.901946V202.618417c0-20.671839 16.817869-37.489707 37.487707-37.489707h337.697362V74.725416c0-15.873876-6.227951-30.845759-17.539863-42.15967-11.197913-11.287912-26.161796-17.489863-42.159671-17.489864H279.683815c-15.061882 0-30.567761 6.567949-41.487676 17.571863-11.031914 11.081913-17.357864 26.413794-17.357864 42.079671v419.506723h336.337372c20.669839 0 37.487707 16.817869 37.487707 37.487707v248.902055a7.533941 7.533941 0 0 1-12.637901 5.549957l-56.685557-52.085593H220.838275z" fill="#4A555F" /><path d="M559.559628 945.95461c0 18.279857-14.795884 33.073742-33.023742 33.073741h-66.153483c-18.229858 0-33.023742-14.793884-33.023742-33.073741v-4.015969c0-18.281857 14.793884-33.025742 33.023742-33.025742h66.153483c18.227858 0 33.023742 14.741885 33.023742 33.025742v4.015969z m165.15871-114.227108c0 21.557832-17.989859 39.749689-39.59969 39.74969H301.743643c-21.507832 0-39.547691-18.341857-39.547691-39.74969v-105.177178h-20.803838v222.71826c0 21.609831 17.537863 39.145694 39.145694 39.145694h425.838673c21.607831 0 39.145694-17.537863 39.145695-39.145694V397.396895H724.718338v434.330607z m-18.341857-796.19778H280.537808c-21.607831 0-39.145694 17.587863-39.145694 39.197694v427.044664h20.803838V98.745229c0-9.395927 3.365974-18.541855 9.497925-25.6778 7.387942-8.591933 18.793853-13.969891 30.101765-13.969891h88.947305c7.487942 0 14.873884 2.261982 21.155835 6.281951 0.803994 0.501996 1.607987 1.055992 2.361982 1.607988a36.909712 36.909712 0 0 1 4.171967 3.667971c3.265974 3.215975 5.879954 6.983945 8.341935 11.105913 7.235943 11.55791 20.351841 19.295849 34.071734 19.295849h65.17749c13.717893 0 27.085788-7.587941 34.121734-19.295849 7.73994-12.965899 20.45384-22.663823 36.029718-22.663823h88.947305c21.357833 0 39.599691 18.089859 39.599691 39.647691v73.921422h20.803838V74.725416c-0.004-21.607831-17.541863-39.195694-39.149695-39.195694z" fill="#71CCE0" /><path d="M493.374146 47.177631h40.373684v15.075883h-40.373684zM454.094452 47.177631h18.427856v15.075883h-18.427856zM526.533886 986.588292H460.380403c-22.363825 0-40.559683-18.219858-40.559683-40.613682v-4.015969c0-22.365825 18.195858-40.559683 40.559683-40.559683h66.153483c22.367825 0 40.565683 18.193858 40.565684 40.559683v4.015969c-0.002 22.393825-18.197858 40.613683-40.565684 40.613682zM460.380403 916.47284c-14.04989 0-25.483801 11.431911-25.483801 25.483801v4.015969c0 14.08189 11.433911 25.5378 25.483801 25.5378h66.153483c14.05589 0 25.489801-11.455911 25.489801-25.5378v-4.015969c0-14.05189-11.433911-25.483801-25.489801-25.483801H460.380403z" fill="#4A555F" /><path d="M685.118648 879.013133H301.741643c-25.517801 0-47.081632-21.653831-47.081633-47.285631v-105.179178a7.539941 7.539941 0 0 1 7.537942-7.537941H528.279873c1.889985 0 3.709971 0.709994 5.09796 1.987984l46.207639 42.459668v-231.738189c0-12.359903-10.055921-22.411825-22.411825-22.411825h-294.977695a7.539941 7.539941 0 0 1-7.537942-7.537941V98.745229c0-11.229912 4.019969-22.095827 11.315912-30.589761 8.93193-10.391919 22.319826-16.59387 35.81972-16.593871h88.947305c8.861931 0 17.583863 2.58398 25.213803 7.471942 0.877993 0.543996 1.845986 1.207991 2.747979 1.867985 2.099984 1.611987 3.743971 3.059976 5.16196 4.533965 3.193975 3.145975 6.129952 7.031945 9.373926 12.457902 5.913954 9.441926 16.773869 15.627878 27.599785 15.627878h65.18149c11.095913 0 21.951829-6.139952 27.653784-15.639877 9.985922-16.719869 25.479801-26.317794 42.493668-26.317795h88.947306c25.5478 0 47.135632 21.607831 47.135631 47.185632v73.921422a7.539941 7.539941 0 0 1-7.537941 7.537941h-296.337685c-12.357903 0-22.411825 10.055921-22.411825 22.413825v231.67619l46.15364-42.447668a7.543941 7.543941 0 0 1 5.10396-1.989985h267.48991a7.539941 7.539941 0 0 1 7.537941 7.537941v434.332607c0.006 25.6278-21.581831 47.281631-47.129631 47.281631z m-415.382755-144.926868v97.641237c0 17.459864 14.657885 32.209748 32.00575 32.209748h383.377005c17.377864 0 32.05975-14.749885 32.059749-32.209748V404.932836H460.164405l-56.631558 52.083594a7.549941 7.549941 0 0 1-8.131936 1.353989 7.531941 7.531941 0 0 1-4.509965-6.901946V202.618417c0-20.671839 16.817869-37.489707 37.487707-37.489707H717.178397V98.745229c0-17.403864-14.683885-32.109749-32.059749-32.10975h-88.947306c-11.57591 0-22.347825 6.921946-29.557769 18.989852-8.385934 13.959891-24.31181 22.969821-40.589683 22.969821h-65.18149c-16.139874 0-31.643753-8.749932-40.457684-22.833822-2.639979-4.413966-4.853962-7.377942-7.243944-9.735924a30.467762 30.467762 0 0 0-3.469973-3.057976 33.573738 33.573738 0 0 0-1.755986-1.185991c-5.211959-3.337974-11.281912-5.14596-17.171866-5.14596h-88.947305c-9.02393 0-18.373856 4.347966-24.385809 11.343912a31.865751 31.865751 0 0 0-7.67594 20.765838v395.48691h287.439754c20.669839 0 37.487707 16.817869 37.487707 37.487707v248.902055a7.533941 7.533941 0 0 1-12.637901 5.549957l-56.685557-52.085593H269.735893z" fill="#4A555F" /><path d="M428.380653 172.666651h271.261881V98.745229c0-7.63794-6.933946-14.521887-14.471887-14.521887h-88.947305c-7.437942 0-12.613901 7.335943-14.521887 10.453918-11.659909 19.447848-32.965742 31.507754-55.629565 31.507754h-65.177491c-22.211826 0-43.417661-11.909907-55.629565-31.507754-3.063976-5.07596-4.923962-6.885946-6.733948-8.039937-2.461981-1.607987-5.225959-2.411981-7.737939-2.411981h-88.947305c-3.919969 0-8.391934 2.059984-11.105913 5.225959-2.159983 2.51198-3.365974 5.929954-3.365974 9.295928v403.024851h269.803892c16.533871 0 29.951766 13.415895 29.951766 29.949766v248.900055l-58.84554-54.071577H287.371755v105.177178c0 7.68794 6.833947 14.623886 14.421887 14.623886h383.375005c7.68794 0 14.471887-6.883946 14.471887-14.623886V397.396895h-242.418106l-58.795541 54.071578V202.618417c0.004-16.533871 13.419895-29.951766 29.953766-29.951766z" fill="#FFD452" /><path d="M398.424887 459.012414a7.533941 7.533941 0 0 1-7.537941-7.537941V202.604417c0-20.667839 16.813869-37.483707 37.483707-37.483707h358.911196c20.669839 0 37.483707 16.815869 37.483708 37.483707v164.858712c0 20.669839-16.813869 37.485707-37.483708 37.485707h-327.097444l-56.661558 52.075593a7.533941 7.533941 0 0 1-5.09796 1.987985z m29.943766-278.815822c-12.357903 0-22.407825 10.053921-22.407825 22.407825v231.70219l46.18364-42.447668a7.529941 7.529941 0 0 1 5.09796-1.987985H787.277849c12.357903 0 22.407825-10.051921 22.407825-22.409825v-164.858712c0-12.353903-10.049921-22.407825-22.407825-22.407825H428.368653zM587.115413 788.139843c-1.853986 0-3.679971-0.683995-5.09796-1.987985l-56.665557-52.075593H198.258451c-20.669839 0-37.487707-16.815869-37.487707-37.485707v-164.860712c0-20.667839 16.817869-37.483707 37.487707-37.483707h358.911196c20.669839 0 37.483707 16.815869 37.483707 37.483707v248.872056a7.533941 7.533941 0 0 1-7.537941 7.537941z m-388.856962-278.817822c-12.357903 0-22.411825 10.053921-22.411825 22.407825v164.860712c0 12.357903 10.055921 22.409825 22.411825 22.409825h330.031422c1.889985 0 3.709971 0.709994 5.09796 1.987984l46.189639 42.447669V531.729846c0-12.353903-10.049921-22.407825-22.407825-22.407825H198.258451z" fill="#4A555F" /><path d="M270.931883 581.217459a26.305794 26.287795 90 1 0 52.57559 0 26.305794 26.287795 90 1 0-52.57559 0Z" fill="#FFD452" /><path d="M345.019305 644.218967v15.175881c-12.011906 12.613901-28.995773 20.401841-47.789627 20.401841a65.955485 65.955485 0 0 1-47.841626-20.401841v-15.175881c0-14.373888 8.391934-27.941782 22.159827-33.669737a39.383692 39.383692 0 0 1 15.227881-3.015976h20.903836c5.377958 0 10.503918 1.055992 15.175882 3.015976 13.819892 5.727955 22.163827 19.295849 22.163827 33.669737z" fill="#FFD452" /><path d="M297.217678 615.061195c-18.647854 0-33.821736-15.183881-33.821736-33.843736 0-18.659854 15.173881-33.843736 33.821736-33.843735 18.653854 0 33.827736 15.183881 33.827736 33.843735 0 18.659854-15.173881 33.843736-33.827736 33.843736z m0-52.613589c-10.335919 0-18.745854 8.417934-18.745854 18.767853s8.411934 18.767853 18.745854 18.767854c10.339919 0 18.751854-8.417934 18.751853-18.767854s-8.411934-18.767853-18.751853-18.767853z" fill="#4A555F" /><path d="M297.227678 687.33263c-20.351841 0-39.273693-8.071937-53.285584-22.729822a7.545941 7.545941 0 0 1-2.089983-5.20996v-15.175881c0-17.90386 10.515918-33.853736 26.79979-40.629683 5.681956-2.381981 11.787908-3.593972 18.123859-3.593971h20.905836c6.305951 0 12.391903 1.211991 18.089859 3.601971 16.257873 6.739947 26.785791 22.689823 26.785791 40.621683v15.175881a7.539941 7.539941 0 0 1-2.079984 5.19796c-13.965891 14.667885-32.873743 22.741822-53.249584 22.741822z m-40.299685-31.065757c10.899915 10.335919 25.095804 15.991875 40.299685 15.991875 15.217881 0 29.39577-5.653956 40.251685-15.981875v-12.057906c0-11.813908-6.875946-22.297826-17.509863-26.705791a31.545754 31.545754 0 0 0-12.287904-2.441981h-20.905836c-4.323966 0-8.469934 0.817994-12.311904 2.429981-10.659917 4.435965-17.533863 14.921883-17.533863 26.717791v12.047906z" fill="#4A555F" /><path d="M297.217678 687.32063c-40.745682 0-73.897423-33.149741-73.897423-73.893422 0-40.745682 33.149741-73.897423 73.897423-73.897423s73.897423 33.149741 73.897423 73.897423c0 40.743682-33.149741 73.893423-73.897423 73.893422z m0-132.714963c-32.433747 0-58.82154 26.387794-58.82154 58.821541s26.387794 58.81754 58.82154 58.81754 58.82154-26.385794 58.82154-58.81754c0-32.433747-26.387794-58.82154-58.82154-58.821541zM415.114757 559.537629h109.461145v15.075882h-109.461145zM415.114757 610.699229h109.461145v15.075882h-109.461145zM415.114757 661.858829h109.461145v15.075882h-109.461145z" fill="#4A555F" /><path d="M667.528785 249.438051a26.305794 26.287795 90 1 0 52.575589 0 26.305794 26.287795 90 1 0-52.575589 0Z" fill="#71CCE0" /><path d="M741.614206 312.439559v15.175882c-12.011906 12.613901-28.995773 20.401841-47.789627 20.40184a65.947485 65.947485 0 0 1-47.839626-20.40184v-15.175882c0-14.371888 8.391934-27.939782 22.159827-33.667737a39.383692 39.383692 0 0 1 15.227881-3.015976h20.903837c5.377958 0 10.503918 1.053992 15.175881 3.015976 13.819892 5.727955 22.161827 19.295849 22.161827 33.667737z" fill="#71CCE0" /><path d="M693.81458 283.283787c-18.647854 0-33.821736-15.183881-33.821736-33.843736s15.173881-33.843736 33.821736-33.843735c18.653854 0 33.827736 15.183881 33.827735 33.843735s-15.175881 33.843736-33.827735 33.843736z m0-52.613589c-10.335919 0-18.745854 8.417934-18.745854 18.767853 0 10.349919 8.411934 18.767853 18.745854 18.767854 10.339919 0 18.751854-8.417934 18.751853-18.767854-0.002-10.349919-8.411934-18.767853-18.751853-18.767853z" fill="#4A555F" /><path d="M693.824579 355.555222c-20.351841 0-39.273693-8.071937-53.285583-22.729822a7.545941 7.545941 0 0 1-2.089984-5.209959v-15.175882c0-17.90386 10.515918-33.853736 26.799791-40.629683 5.681956-2.381981 11.787908-3.593972 18.123858-3.593971h20.905837c6.305951 0 12.391903 1.211991 18.089858 3.601971 16.257873 6.739947 26.785791 22.689823 26.785791 40.621683v15.175882a7.539941 7.539941 0 0 1-2.079984 5.197959c-13.965891 14.665885-32.875743 22.741822-53.249584 22.741822z m-40.301685-31.067757c10.899915 10.335919 25.095804 15.991875 40.299686 15.991875 15.217881 0 29.39577-5.653956 40.251685-15.981875v-12.057906c0-11.813908-6.875946-22.297826-17.509863-26.705791a31.545754 31.545754 0 0 0-12.287904-2.441981h-20.905837c-4.323966 0-8.469934 0.817994-12.311904 2.429981-10.659917 4.435965-17.533863 14.921883-17.533863 26.717791v12.047906z" fill="#4A555F" /><path d="M693.81458 355.545222c-40.745682 0-73.897423-33.149741-73.897423-73.897422s33.149741-73.897423 73.897423-73.897423c40.745682 0 73.897423 33.149741 73.897422 73.897423s-33.151741 73.897423-73.897422 73.897422z m0-132.716963c-32.433747 0-58.82154 26.387794-58.821541 58.821541s26.387794 58.82154 58.821541 58.82154 58.82154-26.387794 58.82154-58.82154-26.389794-58.82154-58.82154-58.821541zM469.842329 227.760221h109.461145v15.075882h-109.461145zM469.842329 278.919821h109.461145v15.075882h-109.461145zM469.842329 330.079421h109.461145v15.075882h-109.461145zM863.229256 275.13985h-15.075882v-15.075882h15.075882v15.075882z m0-30.151764h-15.075882v-15.075882h15.075882v15.075882z m0-30.151764h-15.075882v-15.075883h15.075882v15.075883z m-15.40388-29.203772a44.499652 44.499652 0 0 0-3.405973-12.379904l13.799892-6.059952a59.447536 59.447536 0 0 1 4.563965 16.57987l-14.957884 1.859986z m-10.22392-23.271818a44.943649 44.943649 0 0 0-9.637924-8.513934l8.253935-12.611901a59.935532 59.935532 0 0 1 12.877899 11.375911l-11.49391 9.749924z m-21.273834-13.915892a44.635651 44.635651 0 0 0-12.7159-1.837985l-0.004-15.075883c5.785955 0 11.50791 0.825994 17.009867 2.461981l-4.289967 14.451887zM184.30656 855.761314h-15.075882v-15.075882h15.075882v15.075882z m0-30.149764h-15.075882v-15.075882h15.075882v15.075882z m0-30.151765h-15.075882v-15.075882h15.075882v15.075882z m0-30.151764h-15.075882v-15.075882h15.075882v15.075882z" fill="#4A555F" /></svg>